Coordinates
version=1
nRows=34
nColumns=19
inDegrees=yes

Units are S.I. units (second, meters, Newtons, ...)
If the header above contains a line with 'inDegrees', this indicates whether rotational values are in degrees (yes) or radians (no).

endheader
time	pelvis_tilt	pelvis_list	pelvis_rotation	pelvis_tx	pelvis_ty	pelvis_tz	hip_flexion_r	hip_adduction_r	hip_rotation_r	knee_angle_r	knee_angle_r_beta	ankle_angle_r	hip_flexion_l	hip_adduction_l	hip_rotation_l	knee_angle_l	knee_angle_l_beta	ankle_angle_l
     16.64666667	    -12.14097681	      6.84477087	      5.59505004	      2.27379531	      1.05331573	      1.00249785	     -4.20344860	    -14.18515503	    -14.73714802	     84.29893440	      1.47129396	    -23.25256875	     33.71779929	      9.34440952	    -11.93028459	     12.61622757	      0.22019471	     -1.76647156
     16.65333333	    -13.23937772	      6.78687201	      5.97963080	      2.27209681	      1.04707257	      1.00245609	     -1.18359823	    -14.27418279	    -13.97365872	     88.37744360	      1.54247738	    -22.92892595	     35.60979448	      9.02576686	    -12.63128471	     16.39675340	      0.28617733	     -0.87096296
     16.66000000	    -13.67833202	      7.00013810	      6.41796420	      2.27063466	      1.04148427	      1.00237556	      1.02990946	    -14.71513548	    -13.50417135	     92.20036339	      1.60919991	    -22.62498587	     36.66909351	      8.96382847	    -13.16550965	     20.25575438	      0.35352961	      0.31783270
     16.66666667	    -14.09423954	      7.10698860	      6.78119853	      2.26901257	      1.03585778	      1.00249352	      3.38930791	    -15.01570013	    -12.90004004	     95.87943148	      1.67341176	    -22.35680764	     37.67193253	      8.76289489	    -13.47545315	     24.24568362	      0.42316701	      1.82525004
     16.67333333	    -14.56336564	      7.11636873	      7.08222074	      2.26723617	      1.03017486	      1.00265995	      5.99135621	    -15.20629012	    -12.16170830	     99.41718404	      1.73515719	    -22.22327338	     38.62030495	      8.50184348	    -13.49390286	     28.15620167	      0.49141842	      3.63711725
     16.68000000	    -15.00733807	      7.05443081	      7.29968397	      2.26526730	      1.02475226	      1.00288278	      8.75895819	    -15.29861489	    -11.29623708	    102.76935320	      1.79366358	    -22.21516173	     39.37863001	      8.21934243	    -13.24916330	     31.83949429	      0.55570401	      5.71400538
     16.68666667	    -14.46271880	      7.51904075	      7.55568218	      2.26374889	      1.02114065	      1.00279110	     10.31371702	    -16.04500933	    -10.64258028	    105.73155027	      1.84536368	    -22.29222594	     38.61835781	      8.54908009	    -12.86341117	     34.81064757	      0.60756041	      7.99016322
     16.69333333	    -15.80350199	      6.76375992	      7.33473288	      2.26069949	      1.01520715	      1.00366914	     14.84694200	    -15.11666099	     -9.05478106	    108.81555169	      1.89918965	    -22.45414708	     40.14298051	      7.55287026	    -12.34937300	     38.08001449	      0.66462163	     10.34905111
     16.70000000	    -16.28255505	      6.63662948	      7.21375276	      2.25824683	      1.01114553	      1.00400597	     18.24164779	    -14.99958910	     -7.75625528	    111.45306448	      1.94522294	    -22.67661843	     40.17867933	      7.30099644	    -11.82198506	     40.44072430	      0.70582379	     12.79068098
     16.70666667	    -16.75409289	      6.46994202	      7.00995548	      2.25577946	      1.00777914	      1.00438895	     21.76203092	    -14.76012914	     -6.42170095	    113.75487289	      1.98539707	    -22.84660545	     39.90787732	      7.03726749	    -11.24395015	     42.27367502	      0.73781482	     15.20641216
     16.71333333	    -16.97658025	      6.39079274	      6.56134463	      2.25353550	      1.00553742	      1.00505180	     25.14499543	    -14.42635438	     -4.91412459	    115.66957350	      2.01881490	    -23.02999796	     39.01752037	      6.70501994	    -10.94685280	     43.51289476	      0.75944328	     17.50323837
     16.72000000	    -16.93667361	      6.33582971	      5.99592757	      2.25172107	      1.00447753	      1.00583428	     28.23889141	    -13.97186934	     -3.44054581	    117.13260107	      2.04434955	    -23.04067374	     37.49785170	      6.33942899	    -10.77489884	     44.17315507	      0.77096700	     19.60165208
     16.72666667	    -17.26209251	      6.20899373	      5.42875885	      2.25007007	      1.00365695	      1.00646715	     31.74378803	    -13.40474575	     -2.06422202	    118.21827381	      2.06329811	    -22.99893067	     36.10546772	      5.98392106	    -10.58710082	     44.35302317	      0.77410629	     21.38876122
     16.73333333	    -17.02657543	      5.98613346	      5.01871559	      2.24930646	      1.00459746	      1.00678393	     34.32395191	    -12.81872031	     -1.22063790	    118.68832737	      2.07150210	    -22.69300763	     33.77336145	      5.68543749	    -10.12853331	     43.94342588	      0.76695747	     22.87983839
     16.74000000	    -16.89160031	      6.12604366	      3.83718473	      2.24887780	      1.00602919	      1.00802780	     37.27987260	    -12.01983416	      0.47330703	    118.91290624	      2.07542174	    -22.39315334	     31.19927637	      5.25649680	    -10.87080911	     42.95844514	      0.74976631	     23.78293238
     16.74666667	    -16.76293898	      6.12127248	      2.91988908	      2.24891878	      1.00810534	      1.00871226	     39.93740083	    -11.25090044	      1.62074342	    118.68750511	      2.07148775	    -21.85968501	     28.44964703	      4.99045286	    -11.21569548	     41.58275060	      0.72575591	     24.28734260
     16.75333333	    -16.50423824	      6.16763099	      1.93807353	      2.24957303	      1.01102824	      1.00931537	     42.26456008	    -10.49910083	      2.64092969	    118.05705252	      2.06048427	    -21.22644953	     25.33026285	      4.85554459	    -11.66058858	     39.74069238	      0.69360593	     24.12481855
     16.76000000	    -15.90076120	      6.07335984	      1.01001079	      2.25109342	      1.01513708	      1.00962424	     43.86739367	     -9.72723889	      3.27116078	    116.94479294	      2.04107168	    -20.41455967	     21.63321087	      4.74133706	    -11.98987525	     37.45223017	      0.65366473	     23.40470702
     16.76666667	    -15.83361842	      5.92025435	      0.08518212	      2.25280833	      1.01892138	      1.00984876	     45.91231961	     -8.86387132	      3.77883853	    115.54245658	      2.01659629	    -19.61705667	     18.45753926	      4.64917059	    -12.37915926	     34.97584557	      0.61044366	     22.01273248
     16.77333333	    -15.29776127	      5.57411724	     -0.72327434	      2.25531179	      1.02391867	      1.00974878	     47.05523502	     -8.06264171	      3.81032520	    113.70082743	      1.98445380	    -18.66089297	     14.66062691	      4.52087288	    -12.56210167	     32.18480068	      0.56173074	     19.91576745
     16.78000000	    -15.34756686	      5.21610694	     -1.46608083	      2.25780172	      1.02831261	      1.00952995	     48.70737361	     -7.27976388	      3.72383544	    111.64669837	      1.94860249	    -17.79123597	     11.53835512	      4.42578117	    -12.76867391	     29.35042449	      0.51226154	     17.18451796
     16.78666667	    -15.06799649	      4.59908743	     -2.05612265	      2.26080468	      1.03350883	      1.00904025	     49.64270290	     -6.52558185	      3.15131032	    109.22672270	      1.90636594	    -16.82134328	      8.06027893	      4.14931041	    -12.80190829	     26.41158837	      0.46096918	     13.89832638
     16.79333333	    -15.17500974	      3.99175984	     -2.56994900	      2.26381785	      1.03823523	      1.00846361	     50.85614252	     -5.86822351	      2.45440322	    106.61420753	      1.86076895	    -15.94918585	      5.10273052	      3.87232313	    -12.89389430	     23.53977047	      0.41084650	     10.06004013
     16.80000000	    -15.44735193	      3.34686265	     -3.00389173	      2.26687606	      1.04276643	      1.00782046	     52.06362334	     -5.28541231	      1.57906341	    103.78889747	      1.81145799	    -15.05968425	      2.45687738	      3.52981058	    -13.06599669	     20.80037324	      0.36303500	      5.80454570
     16.80666667	    -15.78475056	      2.66503625	     -3.34733496	      2.27002584	      1.04717765	      1.00709350	     53.15074517	     -4.81021365	      0.51796370	    100.75039196	      1.75842606	    -14.27127963	      0.03157597	      3.10739368	    -13.35832762	     18.23544877	      0.31826862	      1.27635730
     16.81333333	    -16.13773605	      1.92969727	     -3.63521926	      2.27317498	      1.05146675	      1.00634604	     54.07442995	     -4.40789081	     -0.72721571	     97.50458557	      1.70177605	    -13.56489355	     -2.19785952	      2.57547927	    -13.85820267	     15.92325174	      0.27791317	     -3.31233138
     16.82000000	    -16.49792160	      1.15699669	     -3.82879286	      2.27622195	      1.05564809	      1.00555905	     54.82448120	     -4.08510355	     -2.13034110	     94.05117978	      1.64150275	    -12.94196081	     -4.17263527	      1.92261224	    -14.60186620	     14.00510792	      0.24443525	     -7.78707301
     16.82666667	    -16.90524831	      0.45621941	     -4.02123230	      2.27914772	      1.05949940	      1.00488778	     55.49883208	     -3.85662922	     -3.57206092	     90.43730456	      1.57842873	    -12.41523328	     -5.85683971	      1.26499375	    -15.72317766	     12.50532972	      0.21825918	    -11.96890634
     16.83333333	    -17.45806890	     -0.21164019	     -4.17573008	      2.28186092	      1.06290006	      1.00433983	     56.18415828	     -3.68541534	     -5.10129030	     86.64031355	      1.51215874	    -12.03874789	     -7.10469041	      0.52892687	    -17.16586303	     11.55590740	      0.20168863	    -15.56897870
     16.84000000	    -17.51622231	     -0.85355959	     -4.23867338	      2.28455409	      1.06666926	      1.00381023	     56.15221786	     -3.68834862	     -6.78603156	     82.66700362	      1.44281140	    -11.59715131	     -8.67385657	     -0.22815433	    -18.81286742	     11.01719642	      0.19228635	    -18.67311449
     16.84666667	    -17.83140311	     -1.42019138	     -4.34829503	      2.28690581	      1.06975202	      1.00368614	     56.28255072	     -3.62391923	     -8.45338124	     78.52111241	      1.37045194	    -11.31296637	     -9.66514361	     -1.07779715	    -20.87020211	     11.18972760	      0.19529759	    -20.89211200
     16.85333333	    -17.80410513	     -1.96952588	     -4.36371897	      2.28914155	      1.07297345	      1.00378763	     55.86384956	     -3.61796843	    -10.25032658	     74.18842506	      1.29483228	    -10.98945664	    -10.83492102	     -2.00729165	    -22.92279139	     11.82288711	      0.20634831	    -22.48462674
     16.86000000	    -17.91311761	     -2.42383407	     -4.42825932	      2.29104610	      1.07555296	      1.00447298	     55.48394504	     -3.52495195	    -12.01421459	     69.70683253	      1.21661374	    -10.69754334	    -11.61513902	     -3.03042773	    -25.15971440	     13.13211298	      0.22919861	    -23.23248373
     16.86666667	    -17.75104571	     -2.88962355	     -4.40996180	      2.29272620	      1.07812625	      1.00556885	     54.65150363	     -3.36246660	    -13.86396836	     65.05056434	      1.13534653	    -10.31612440	    -12.53006964	     -4.19436717	    -27.12722633	     14.89446314	      0.25995742	    -23.42150360
